<svg xmlns="http://www.w3.org/2000/svg" width="176" height="88" fill="none" xmlns:v="https://vecta.io/nano"><path d="M0 61v17c0 5.523 4.433 10 9.901 10h64.358c5.468 0 9.901-4.477 9.901-10v-8h-5.941v8c0 2.209-1.773 4-3.961 4H9.901c-2.187 0-3.96-1.791-3.96-4V61H0z" fill="#60b524"/><path d="M12.565 58.005c8.02 0 11.896-4.14 11.896-9.63 0-11.205-17.065-8.01-17.065-12.78 0-1.8 1.515-3.015 4.233-3.015 3.03 0 6.238 1.035 8.644 3.285l3.52-4.68C20.852 28.44 16.931 27 12.208 27 5.213 27 .936 31.14.936 36.135c0 11.295 17.109 7.65 17.109 12.96 0 1.71-1.693 3.33-5.168 3.33a12.97 12.97 0 0 1-9.446-4.05L0 53.235c2.762 2.835 6.862 4.77 12.565 4.77zm36.206-.54V42.12c0-4.23-2.272-6.93-6.995-6.93-3.52 0-6.149 1.71-7.53 3.375V35.73h-5.659v21.735h5.659V42.84c.936-1.305 2.673-2.565 4.901-2.565 2.406 0 3.965 1.035 3.965 4.05v13.14h5.659zm24.198 0v-14.04c0-6.255-4.5-8.235-9.401-8.235-3.386 0-6.772 1.08-9.401 3.42l2.139 3.825c1.827-1.71 3.965-2.565 6.282-2.565 2.852 0 4.723 1.44 4.723 3.645v2.925c-1.426-1.71-3.965-2.655-6.817-2.655-3.431 0-7.485 1.935-7.485 7.02 0 4.86 4.054 7.2 7.485 7.2 2.807 0 5.347-1.035 6.817-2.79v2.25h5.659zm-10.203-3.33c-2.228 0-4.055-1.17-4.055-3.195 0-2.115 1.827-3.285 4.055-3.285 1.827 0 3.609.63 4.545 1.89v2.7c-.936 1.26-2.718 1.89-4.545 1.89zm28.033 3.87c5.525 0 9.535-4.185 9.535-11.43s-4.01-11.385-9.535-11.385c-2.629 0-4.99 1.17-6.639 3.285V36h-5.941v30h5.941V54.675c1.738 2.25 4.099 3.33 6.639 3.33zm-1.782-5.085c-1.827 0-3.921-1.125-4.856-2.475V42.75c.936-1.395 3.03-2.475 4.856-2.475 3.253 0 5.436 2.565 5.436 6.3 0 3.78-2.183 6.345-5.436 6.345z" fill="#3878c2"/><path d="M111.018 57.465V46.8h7.574c6.416 0 9.981-4.455 9.981-9.675 0-5.265-3.52-9.675-9.981-9.675h-13.901v30.015h6.327zm6.728-16.29h-6.728v-8.1h6.728c2.495 0 4.366 1.53 4.366 4.05 0 2.475-1.871 4.05-4.366 4.05zm32.324 16.29v-14.04c0-6.255-4.5-8.235-9.401-8.235-3.386 0-6.772 1.08-9.401 3.42l2.139 3.825c1.826-1.71 3.965-2.565 6.282-2.565 2.851 0 4.723 1.44 4.723 3.645v2.925c-1.426-1.71-3.966-2.655-6.817-2.655-3.431 0-7.486 1.935-7.486 7.02 0 4.86 4.055 7.2 7.486 7.2 2.807 0 5.346-1.035 6.817-2.79v2.25h5.658zm-10.203-3.33c-2.228 0-4.054-1.17-4.054-3.195 0-2.115 1.826-3.285 4.054-3.285 1.827 0 3.609.63 4.545 1.89v2.7c-.936 1.26-2.718 1.89-4.545 1.89zm15.058 11.835c.713.18 2.139.315 2.807.315 3.698-.09 6.55-1.17 8.154-5.265L176 35.73h-6.104l-5.614 15.12-5.614-15.12h-6.06l8.733 22.05-.802 1.845c-.534 1.17-1.515 1.575-2.985 1.575-.535 0-1.292-.135-1.782-.36l-.847 5.13z" fill="#60b524"/><path d="M9.901 6h64.358c2.187 0 3.961 1.791 3.961 4v21h5.941V10c0-5.523-4.433-10-9.901-10H9.901C4.433 0 0 4.477 0 10v14h5.941V10c0-2.209 1.773-4 3.96-4z" fill="#3878c2"/></svg>